solid OpenSCAD_Model
  facet normal 0 0 -1
    outer loop
      vertex 16 0 0
      vertex 20 0 0
      vertex 19.5629 -4.15823 0
    endloop
  endfacet
  facet normal 0 0 -1
    outer loop
      vertex 15.6504 -3.32658 0
      vertex 19.5629 -4.15823 0
      vertex 18.2709 -8.13472 0
    endloop
  endfacet
  facet normal 0 0 -1
    outer loop
      vertex 20 0 0
      vertex 16 0 0
      vertex 19.5629 4.15823 0
    endloop
  endfacet
  facet normal 0 0 -1
    outer loop
      vertex 14.6167 -6.50778 0
      vertex 18.2709 -8.13472 0
      vertex 16.1803 -11.7557 0
    endloop
  endfacet
  facet normal 0 0 -1
    outer loop
      vertex 15.6504 3.32658 0
      vertex 19.5629 4.15823 0
      vertex 16 0 0
    endloop
  endfacet
  facet normal -0 0 -1
    outer loop
      vertex 19.5629 4.15823 0
      vertex 15.6504 3.32658 0
      vertex 18.2709 8.13472 0
    endloop
  endfacet
  facet normal 0 0 -1
    outer loop
      vertex 19.5629 -4.15823 0
      vertex 15.6504 -3.32658 0
      vertex 16 0 0
    endloop
  endfacet
  facet normal 0 0 -1
    outer loop
      vertex 18.2709 -8.13472 0
      vertex 14.6167 -6.50778 0
      vertex 15.6504 -3.32658 0
    endloop
  endfacet
  facet normal 0 0 -1
    outer loop
      vertex 12.9443 -9.40456 0
      vertex 16.1803 -11.7557 0
      vertex 13.3826 -14.8629 0
    endloop
  endfacet
  facet normal 0 0 -1
    outer loop
      vertex 16.1803 -11.7557 0
      vertex 12.9443 -9.40456 0
      vertex 14.6167 -6.50778 0
    endloop
  endfacet
  facet normal 0 0 -1
    outer loop
      vertex 13.3826 -14.8629 0
      vertex 10.7061 -11.8903 0
      vertex 12.9443 -9.40456 0
    endloop
  endfacet
  facet normal 0 0 -1
    outer loop
      vertex 10 -17.3205 0
      vertex 10.7061 -11.8903 0
      vertex 13.3826 -14.8629 0
    endloop
  endfacet
  facet normal 0 0 -1
    outer loop
      vertex 10 -17.3205 0
      vertex 8 -13.8564 0
      vertex 10.7061 -11.8903 0
    endloop
  endfacet
  facet normal 0 0 -1
    outer loop
      vertex 6.18033 -19.0211 0
      vertex 8 -13.8564 0
      vertex 10 -17.3205 0
    endloop
  endfacet
  facet normal 0 0 -1
    outer loop
      vertex 6.18033 -19.0211 0
      vertex 4.94426 -15.2169 0
      vertex 8 -13.8564 0
    endloop
  endfacet
  facet normal 0 0 -1
    outer loop
      vertex 2.09056 -19.8904 0
      vertex 4.94426 -15.2169 0
      vertex 6.18033 -19.0211 0
    endloop
  endfacet
  facet normal 0 0 -1
    outer loop
      vertex 2.09056 -19.8904 0
      vertex 1.67245 -15.9123 0
      vertex 4.94426 -15.2169 0
    endloop
  endfacet
  facet normal 0 0 -1
    outer loop
      vertex 2.09056 -19.8904 0
      vertex -1.67245 -15.9123 0
      vertex 1.67245 -15.9123 0
    endloop
  endfacet
  facet normal 0 0 -1
    outer loop
      vertex -2.09056 -19.8904 0
      vertex -1.67245 -15.9123 0
      vertex 2.09056 -19.8904 0
    endloop
  endfacet
  facet normal 0 0 -1
    outer loop
      vertex -6 -19.0594 0
      vertex -1.67245 -15.9123 0
      vertex -2.09056 -19.8904 0
    endloop
  endfacet
  facet normal -0 0 -1
    outer loop
      vertex -1.67245 -15.9123 0
      vertex -6 -19.0594 0
      vertex -4.94426 -15.2169 0
    endloop
  endfacet
  facet normal -0 0 -1
    outer loop
      vertex -4.94426 -15.2169 0
      vertex -6 -19.0594 0
      vertex -5.99999 -14.7469 0
    endloop
  endfacet
  facet normal 0 0 -1
    outer loop
      vertex 14.6167 6.50778 0
      vertex 18.2709 8.13472 0
      vertex 15.6504 3.32658 0
    endloop
  endfacet
  facet normal -0 0 -1
    outer loop
      vertex 18.2709 8.13472 0
      vertex 14.6167 6.50778 0
      vertex 16.1803 11.7557 0
    endloop
  endfacet
  facet normal 0 0 -1
    outer loop
      vertex 12.9443 9.40456 0
      vertex 16.1803 11.7557 0
      vertex 14.6167 6.50778 0
    endloop
  endfacet
  facet normal -0 0 -1
    outer loop
      vertex 16.1803 11.7557 0
      vertex 12.9443 9.40456 0
      vertex 13.3826 14.8629 0
    endloop
  endfacet
  facet normal 0 0 -1
    outer loop
      vertex 10.7061 11.8903 0
      vertex 13.3826 14.8629 0
      vertex 12.9443 9.40456 0
    endloop
  endfacet
  facet normal 0 0 -1
    outer loop
      vertex 10 12.4033 0
      vertex 13.3826 14.8629 0
      vertex 10.7061 11.8903 0
    endloop
  endfacet
  facet normal -0 0 -1
    outer loop
      vertex 13.3826 14.8629 0
      vertex 10 12.4033 0
      vertex 10 17.3205 0
    endloop
  endfacet
  facet normal 0 0 -1
    outer loop
      vertex 5.99999 14.7469 0
      vertex 10 17.3205 0
      vertex 10 12.4033 0
    endloop
  endfacet
  facet normal 0 0 -1
    outer loop
      vertex 12 26.4 0
      vertex 14 26.4 0
      vertex 13.6749 24.4518 0
    endloop
  endfacet
  facet normal 0 0 -1
    outer loop
      vertex 11.5418 24.5411 0
      vertex 13.6749 24.4518 0
      vertex 12.7348 22.7147 0
    endloop
  endfacet
  facet normal 0 0 -1
    outer loop
      vertex 14 26.4 0
      vertex 12 26.4 0
      vertex 13.6749 28.3482 0
    endloop
  endfacet
  facet normal 0 0 -1
    outer loop
      vertex 11.5418 28.2589 0
      vertex 13.6749 28.3482 0
      vertex 12 26.4 0
    endloop
  endfacet
  facet normal 0 0 -1
    outer loop
      vertex 13.6749 24.4518 0
      vertex 11.5418 24.5411 0
      vertex 12 26.4 0
    endloop
  endfacet
  facet normal 0 0 -1
    outer loop
      vertex 10.2722 23.1081 0
      vertex 12.7348 22.7147 0
      vertex 11.2817 21.377 0
    endloop
  endfacet
  facet normal 0 0 -1
    outer loop
      vertex 12.7348 22.7147 0
      vertex 10.2722 23.1081 0
      vertex 11.5418 24.5411 0
    endloop
  endfacet
  facet normal 0 0 -1
    outer loop
      vertex 9.98729 23 0
      vertex 11.2817 21.377 0
      vertex 10 20.8148 0
    endloop
  endfacet
  facet normal 0 0 -1
    outer loop
      vertex 5.99998 2 0
      vertex 10 12.4033 0
      vertex 9.99998 -11 0
    endloop
  endfacet
  facet normal 0 0 -1
    outer loop
      vertex 11.2817 21.377 0
      vertex 9.98729 23 0
      vertex 10.2722 23.1081 0
    endloop
  endfacet
  facet normal 0 0 -1
    outer loop
      vertex 6 19.0594 0
      vertex 10 20.8148 0
      vertex 10 17.3205 0
    endloop
  endfacet
  facet normal 0 -0 -1
    outer loop
      vertex 5.99999 14.7469 0
      vertex 10 12.4033 0
      vertex 5.99998 2 0
    endloop
  endfacet
  facet normal 0 -0 -1
    outer loop
      vertex 6.08894 23 0
      vertex 10 20.8148 0
      vertex 6 20.8015 0
    endloop
  endfacet
  facet normal 0 0 -1
    outer loop
      vertex 10 20.8148 0
      vertex 6.08894 23 0
      vertex 9.98729 23 0
    endloop
  endfacet
  facet normal 0 0 -1
    outer loop
      vertex 10 20.8148 0
      vertex 6 19.0594 0
      vertex 6 20.8015 0
    endloop
  endfacet
  facet normal 0 0 -1
    outer loop
      vertex 5.99998 -2 0
      vertex 9.99998 -11 0
      vertex 5.99998 -11 0
    endloop
  endfacet
  facet normal 0 0 -1
    outer loop
      vertex 5.99998 2 0
      vertex 9.99998 -11 0
      vertex 5.99998 -2 0
    endloop
  endfacet
  facet normal 0 -0 -1
    outer loop
      vertex 6 19.0594 0
      vertex 10 17.3205 0
      vertex 5.99999 14.7469 0
    endloop
  endfacet
  facet normal 0 0 -1
    outer loop
      vertex -5.99998 -2 0
      vertex 5.99998 2 0
      vertex 5.99998 -2 0
    endloop
  endfacet
  facet normal 0 0 -1
    outer loop
      vertex -5.99998 -2 0
      vertex -5.99998 2 0
      vertex 5.99998 2 0
    endloop
  endfacet
  facet normal 0 0 -1
    outer loop
      vertex -9.99998 11 0
      vertex -5.99998 2 0
      vertex -5.99998 -2 0
    endloop
  endfacet
  facet normal 0 0 -1
    outer loop
      vertex -10 -12.4033 0
      vertex -5.99998 -2 0
      vertex -5.99999 -14.7469 0
    endloop
  endfacet
  facet normal 0 0 -1
    outer loop
      vertex -10 -17.3205 0
      vertex -5.99999 -14.7469 0
      vertex -6 -19.0594 0
    endloop
  endfacet
  facet normal 0 0 -1
    outer loop
      vertex -10 -23 0
      vertex -6 -19.0594 0
      vertex -6 -23 0
    endloop
  endfacet
  facet normal 0 -0 -1
    outer loop
      vertex -9.99998 11 0
      vertex -5.99998 -2 0
      vertex -10 -12.4033 0
    endloop
  endfacet
  facet normal 0 0 -1
    outer loop
      vertex -5.99998 2 0
      vertex -9.99998 11 0
      vertex -5.99998 11 0
    endloop
  endfacet
  facet normal -0 0 -1
    outer loop
      vertex -6 -19.0594 0
      vertex -10 -23 0
      vertex -10 -17.3205 0
    endloop
  endfacet
  facet normal -0 0 -1
    outer loop
      vertex 13.6749 28.3482 0
      vertex 11.5418 28.2589 0
      vertex 12.7348 30.0853 0
    endloop
  endfacet
  facet normal 0 0 -1
    outer loop
      vertex 10.2722 29.6919 0
      vertex 12.7348 30.0853 0
      vertex 11.5418 28.2589 0
    endloop
  endfacet
  facet normal -0 0 -1
    outer loop
      vertex 12.7348 30.0853 0
      vertex 10.2722 29.6919 0
      vertex 11.2817 31.423 0
    endloop
  endfacet
  facet normal 0 0 -1
    outer loop
      vertex 10.2722 29.6919 0
      vertex 9.4729 32.2164 0
      vertex 11.2817 31.423 0
    endloop
  endfacet
  facet normal 0 0 -1
    outer loop
      vertex 8.48213 30.3708 0
      vertex 9.4729 32.2164 0
      vertex 10.2722 29.6919 0
    endloop
  endfacet
  facet normal 0 0 -1
    outer loop
      vertex 8.48213 30.3708 0
      vertex 7.50453 32.3795 0
      vertex 9.4729 32.2164 0
    endloop
  endfacet
  facet normal 0 0 -1
    outer loop
      vertex 6.58159 30.1401 0
      vertex 7.50453 32.3795 0
      vertex 8.48213 30.3708 0
    endloop
  endfacet
  facet normal 0 0 -1
    outer loop
      vertex 6.58159 30.1401 0
      vertex 5.58983 31.8946 0
      vertex 7.50453 32.3795 0
    endloop
  endfacet
  facet normal 0 0 -1
    outer loop
      vertex 3.93633 30.8143 0
      vertex 6.58159 30.1401 0
      vertex 5.00597 29.0525 0
    endloop
  endfacet
  facet normal 0 0 -1
    outer loop
      vertex 2.72316 29.2557 0
      vertex 5.00597 29.0525 0
      vertex 4.11624 27.3573 0
    endloop
  endfacet
  facet normal 0 0 -1
    outer loop
      vertex 6.58159 30.1401 0
      vertex 3.93633 30.8143 0
      vertex 5.58983 31.8946 0
    endloop
  endfacet
  facet normal 0 0 -1
    outer loop
      vertex 2.08183 25.4124 0
      vertex 4.11624 25.4427 0
      vertex 2.72316 23.5443 0
    endloop
  endfacet
  facet normal -0 0 -1
    outer loop
      vertex 4.11624 25.4427 0
      vertex 2.08183 25.4124 0
      vertex 4.11624 27.3573 0
    endloop
  endfacet
  facet normal 0 0 -1
    outer loop
      vertex 5.00597 29.0525 0
      vertex 2.72316 29.2557 0
      vertex 3.93633 30.8143 0
    endloop
  endfacet
  facet normal 0 0 -1
    outer loop
      vertex 2.08183 27.3876 0
      vertex 4.11624 27.3573 0
      vertex 2.08183 25.4124 0
    endloop
  endfacet
  facet normal 0 0 -1
    outer loop
      vertex 4.11624 27.3573 0
      vertex 2.08183 27.3876 0
      vertex 2.72316 29.2557 0
    endloop
  endfacet
  facet normal -0 0 -1
    outer loop
      vertex -5.99999 -14.7469 0
      vertex -10 -17.3205 0
      vertex -10 -12.4033 0
    endloop
  endfacet
  facet normal 0 0 -1
    outer loop
      vertex -13.3826 -14.8629 0
      vertex -10 -12.4033 0
      vertex -10 -17.3205 0
    endloop
  endfacet
  facet normal -0 0 -1
    outer loop
      vertex -10 -12.4033 0
      vertex -13.3826 -14.8629 0
      vertex -10.7061 -11.8903 0
    endloop
  endfacet
  facet normal -0 0 -1
    outer loop
      vertex -10.7061 -11.8903 0
      vertex -13.3826 -14.8629 0
      vertex -12.9443 -9.40456 0
    endloop
  endfacet
  facet normal 0 0 -1
    outer loop
      vertex -16.1803 -11.7557 0
      vertex -12.9443 -9.40456 0
      vertex -13.3826 -14.8629 0
    endloop
  endfacet
  facet normal -0 0 -1
    outer loop
      vertex -12.9443 -9.40456 0
      vertex -16.1803 -11.7557 0
      vertex -14.6167 -6.50778 0
    endloop
  endfacet
  facet normal -0 0 -1
    outer loop
      vertex -14.6167 -6.50778 0
      vertex -18.2709 -8.13472 0
      vertex -15.6504 -3.32658 0
    endloop
  endfacet
  facet normal 0 0 -1
    outer loop
      vertex -18.2709 -8.13472 0
      vertex -14.6167 -6.50778 0
      vertex -16.1803 -11.7557 0
    endloop
  endfacet
  facet normal 0 0 -1
    outer loop
      vertex 5.58983 20.9054 0
      vertex 6.08894 23 0
      vertex 6 20.8015 0
    endloop
  endfacet
  facet normal 0 0 -1
    outer loop
      vertex 3.93633 21.9857 0
      vertex 6.08894 23 0
      vertex 5.58983 20.9054 0
    endloop
  endfacet
  facet normal -0 0 -1
    outer loop
      vertex 6.08894 23 0
      vertex 3.93633 21.9857 0
      vertex 5.00597 23.7475 0
    endloop
  endfacet
  facet normal -0 0 -1
    outer loop
      vertex 5.00597 23.7475 0
      vertex 2.72316 23.5443 0
      vertex 4.11624 25.4427 0
    endloop
  endfacet
  facet normal 0 0 -1
    outer loop
      vertex 2.72316 23.5443 0
      vertex 5.00597 23.7475 0
      vertex 3.93633 21.9857 0
    endloop
  endfacet
  facet normal 0 0 -1
    outer loop
      vertex 4.94426 15.2169 0
      vertex 6 19.0594 0
      vertex 5.99999 14.7469 0
    endloop
  endfacet
  facet normal 0 0 -1
    outer loop
      vertex 1.67245 15.9123 0
      vertex 6 19.0594 0
      vertex 4.94426 15.2169 0
    endloop
  endfacet
  facet normal -0 0 -1
    outer loop
      vertex 6 19.0594 0
      vertex 1.67245 15.9123 0
      vertex 2.09056 19.8904 0
    endloop
  endfacet
  facet normal 0 0 -1
    outer loop
      vertex -1.67245 15.9123 0
      vertex 2.09056 19.8904 0
      vertex 1.67245 15.9123 0
    endloop
  endfacet
  facet normal 0 0 -1
    outer loop
      vertex -1.67245 15.9123 0
      vertex -2.09056 19.8904 0
      vertex 2.09056 19.8904 0
    endloop
  endfacet
  facet normal 0 0 -1
    outer loop
      vertex -4.94426 15.2169 0
      vertex -2.09056 19.8904 0
      vertex -1.67245 15.9123 0
    endloop
  endfacet
  facet normal 0 0 -1
    outer loop
      vertex -4.94426 15.2169 0
      vertex -6.18033 19.0211 0
      vertex -2.09056 19.8904 0
    endloop
  endfacet
  facet normal 0 0 -1
    outer loop
      vertex -7.99998 13.8564 0
      vertex -6.18033 19.0211 0
      vertex -4.94426 15.2169 0
    endloop
  endfacet
  facet normal 0 0 -1
    outer loop
      vertex -7.99998 13.8564 0
      vertex -9.99998 17.3205 0
      vertex -6.18033 19.0211 0
    endloop
  endfacet
  facet normal 0 0 -1
    outer loop
      vertex -10.7061 11.8903 0
      vertex -9.99998 17.3205 0
      vertex -7.99998 13.8564 0
    endloop
  endfacet
  facet normal 0 0 -1
    outer loop
      vertex -13.3826 14.8629 0
      vertex -10.7061 11.8903 0
      vertex -12.9443 9.40456 0
    endloop
  endfacet
  facet normal 0 0 -1
    outer loop
      vertex -10.7061 11.8903 0
      vertex -13.3826 14.8629 0
      vertex -9.99998 17.3205 0
    endloop
  endfacet
  facet normal 0 0 -1
    outer loop
      vertex -16.1803 11.7557 0
      vertex -12.9443 9.40456 0
      vertex -14.6167 6.50778 0
    endloop
  endfacet
  facet normal 0 0 -1
    outer loop
      vertex -18.2709 8.13472 0
      vertex -14.6167 6.50778 0
      vertex -15.6504 3.32658 0
    endloop
  endfacet
  facet normal 0 0 -1
    outer loop
      vertex -12.9443 9.40456 0
      vertex -16.1803 11.7557 0
      vertex -13.3826 14.8629 0
    endloop
  endfacet
  facet normal 0 0 -1
    outer loop
      vertex -19.5629 4.15823 0
      vertex -15.6504 3.32658 0
      vertex -16 0 0
    endloop
  endfacet
  facet normal 0 0 -1
    outer loop
      vertex -19.5629 -4.15823 0
      vertex -15.6504 -3.32658 0
      vertex -18.2709 -8.13472 0
    endloop
  endfacet
  facet normal -0 0 -1
    outer loop
      vertex -15.6504 -3.32658 0
      vertex -19.5629 -4.15823 0
      vertex -16 0 0
    endloop
  endfacet
  facet normal 0 0 -1
    outer loop
      vertex -14.6167 6.50778 0
      vertex -18.2709 8.13472 0
      vertex -16.1803 11.7557 0
    endloop
  endfacet
  facet normal 0 0 -1
    outer loop
      vertex -20 0 0
      vertex -16 0 0
      vertex -19.5629 -4.15823 0
    endloop
  endfacet
  facet normal 0 0 -1
    outer loop
      vertex -15.6504 3.32658 0
      vertex -19.5629 4.15823 0
      vertex -18.2709 8.13472 0
    endloop
  endfacet
  facet normal 0 0 -1
    outer loop
      vertex -16 0 0
      vertex -20 0 0
      vertex -19.5629 4.15823 0
    endloop
  endfacet
  facet normal 0 0 1
    outer loop
      vertex 10.2722 23.1081 2
      vertex 9.98729 23 2
      vertex 10 23 2
    endloop
  endfacet
  facet normal 0 0 1
    outer loop
      vertex 12 26.4 2
      vertex 14 26.4 2
      vertex 13.6749 28.3482 2
    endloop
  endfacet
  facet normal 0 0 1
    outer loop
      vertex 11.5418 28.2589 2
      vertex 13.6749 28.3482 2
      vertex 12.7348 30.0853 2
    endloop
  endfacet
  facet normal 0 0 1
    outer loop
      vertex 14 26.4 2
      vertex 12 26.4 2
      vertex 13.6749 24.4518 2
    endloop
  endfacet
  facet normal -0 0 1
    outer loop
      vertex 11.5418 24.5411 2
      vertex 13.6749 24.4518 2
      vertex 12 26.4 2
    endloop
  endfacet
  facet normal 0 0 1
    outer loop
      vertex 13.6749 28.3482 2
      vertex 11.5418 28.2589 2
      vertex 12 26.4 2
    endloop
  endfacet
  facet normal 0 0 1
    outer loop
      vertex 10.2722 29.6919 2
      vertex 12.7348 30.0853 2
      vertex 11.2817 31.423 2
    endloop
  endfacet
  facet normal 0 0 1
    outer loop
      vertex 12.7348 30.0853 2
      vertex 10.2722 29.6919 2
      vertex 11.5418 28.2589 2
    endloop
  endfacet
  facet normal 0 0 1
    outer loop
      vertex 9.4729 32.2164 2
      vertex 10.2722 29.6919 2
      vertex 11.2817 31.423 2
    endloop
  endfacet
  facet normal 0 0 1
    outer loop
      vertex 9.4729 32.2164 2
      vertex 8.48213 30.3708 2
      vertex 10.2722 29.6919 2
    endloop
  endfacet
  facet normal 0 0 1
    outer loop
      vertex 7.50453 32.3795 2
      vertex 8.48213 30.3708 2
      vertex 9.4729 32.2164 2
    endloop
  endfacet
  facet normal 0 0 1
    outer loop
      vertex 7.50453 32.3795 2
      vertex 6.58159 30.1401 2
      vertex 8.48213 30.3708 2
    endloop
  endfacet
  facet normal -0 0 1
    outer loop
      vertex 5.58983 31.8946 2
      vertex 6.58159 30.1401 2
      vertex 7.50453 32.3795 2
    endloop
  endfacet
  facet normal -0 0 1
    outer loop
      vertex 3.93633 30.8143 2
      vertex 6.58159 30.1401 2
      vertex 5.58983 31.8946 2
    endloop
  endfacet
  facet normal 0 0 1
    outer loop
      vertex 6.58159 30.1401 2
      vertex 3.93633 30.8143 2
      vertex 5.00597 29.0525 2
    endloop
  endfacet
  facet normal 0 0 1
    outer loop
      vertex 5.00597 29.0525 2
      vertex 2.72316 29.2557 2
      vertex 4.11624 27.3573 2
    endloop
  endfacet
  facet normal -0 0 1
    outer loop
      vertex 2.72316 29.2557 2
      vertex 5.00597 29.0525 2
      vertex 3.93633 30.8143 2
    endloop
  endfacet
  facet normal 0 0 1
    outer loop
      vertex 13.6749 24.4518 2
      vertex 11.5418 24.5411 2
      vertex 12.7348 22.7147 2
    endloop
  endfacet
  facet normal -0 0 1
    outer loop
      vertex 10.2722 23.1081 2
      vertex 12.7348 22.7147 2
      vertex 11.5418 24.5411 2
    endloop
  endfacet
  facet normal 0 0 1
    outer loop
      vertex 12.7348 22.7147 2
      vertex 10.2722 23.1081 2
      vertex 11.2817 21.377 2
    endloop
  endfacet
  facet normal -0 0 1
    outer loop
      vertex 10 23 2
      vertex 11.2817 21.377 2
      vertex 10.2722 23.1081 2
    endloop
  endfacet
  facet normal 0 0 1
    outer loop
      vertex 11.2817 21.377 2
      vertex 10 23 2
      vertex 10 20.8148 2
    endloop
  endfacet
  facet normal 0 0 1
    outer loop
      vertex 6 23 2
      vertex 5.58983 20.9054 2
      vertex 6 20.8015 2
    endloop
  endfacet
  facet normal 0 0 1
    outer loop
      vertex 5.00597 23.7475 2
      vertex 6 23 2
      vertex 6.08894 23 2
    endloop
  endfacet
  facet normal 0 0 1
    outer loop
      vertex 3.93633 21.9857 2
      vertex 6 23 2
      vertex 5.00597 23.7475 2
    endloop
  endfacet
  facet normal 0 0 1
    outer loop
      vertex 2.72316 23.5443 2
      vertex 5.00597 23.7475 2
      vertex 4.11624 25.4427 2
    endloop
  endfacet
  facet normal 0 0 1
    outer loop
      vertex 6 23 2
      vertex 3.93633 21.9857 2
      vertex 5.58983 20.9054 2
    endloop
  endfacet
  facet normal -0 0 1
    outer loop
      vertex 2.08183 27.3876 2
      vertex 4.11624 27.3573 2
      vertex 2.72316 29.2557 2
    endloop
  endfacet
  facet normal 0 0 1
    outer loop
      vertex 4.11624 27.3573 2
      vertex 2.08183 27.3876 2
      vertex 4.11624 25.4427 2
    endloop
  endfacet
  facet normal 0 0 1
    outer loop
      vertex 5.00597 23.7475 2
      vertex 2.72316 23.5443 2
      vertex 3.93633 21.9857 2
    endloop
  endfacet
  facet normal 0 0 1
    outer loop
      vertex 2.08183 25.4124 2
      vertex 4.11624 25.4427 2
      vertex 2.08183 27.3876 2
    endloop
  endfacet
  facet normal 0 0 1
    outer loop
      vertex 4.11624 25.4427 2
      vertex 2.08183 25.4124 2
      vertex 2.72316 23.5443 2
    endloop
  endfacet
  facet normal 0.401692 -0.915775 0
    outer loop
      vertex 10 20.8148 0
      vertex 11.2817 21.377 2
      vertex 10 20.8148 2
    endloop
  endfacet
  facet normal 0.401692 -0.915775 0
    outer loop
      vertex 11.2817 21.377 2
      vertex 10 20.8148 0
      vertex 11.2817 21.377 0
    endloop
  endfacet
  facet normal 0.677281 -0.735724 0
    outer loop
      vertex 11.2817 21.377 0
      vertex 12.7348 22.7147 2
      vertex 11.2817 21.377 2
    endloop
  endfacet
  facet normal 0.677281 -0.735724 0
    outer loop
      vertex 12.7348 22.7147 2
      vertex 11.2817 21.377 0
      vertex 12.7348 22.7147 0
    endloop
  endfacet
  facet normal 0.879473 -0.475949 0
    outer loop
      vertex 12.7348 22.7147 2
      vertex 13.6749 24.4518 0
      vertex 13.6749 24.4518 2
    endloop
  endfacet
  facet normal 0.879473 -0.475949 0
    outer loop
      vertex 13.6749 24.4518 0
      vertex 12.7348 22.7147 2
      vertex 12.7348 22.7147 0
    endloop
  endfacet
  facet normal 0.986361 -0.164598 0
    outer loop
      vertex 13.6749 24.4518 2
      vertex 14 26.4 0
      vertex 14 26.4 2
    endloop
  endfacet
  facet normal 0.986361 -0.164598 0
    outer loop
      vertex 14 26.4 0
      vertex 13.6749 24.4518 2
      vertex 13.6749 24.4518 0
    endloop
  endfacet
  facet normal 0.986361 0.164598 0
    outer loop
      vertex 14 26.4 2
      vertex 13.6749 28.3482 0
      vertex 13.6749 28.3482 2
    endloop
  endfacet
  facet normal 0.986361 0.164598 0
    outer loop
      vertex 13.6749 28.3482 0
      vertex 14 26.4 2
      vertex 14 26.4 0
    endloop
  endfacet
  facet normal 0.879473 0.475949 0
    outer loop
      vertex 13.6749 28.3482 2
      vertex 12.7348 30.0853 0
      vertex 12.7348 30.0853 2
    endloop
  endfacet
  facet normal 0.879473 0.475949 0
    outer loop
      vertex 12.7348 30.0853 0
      vertex 13.6749 28.3482 2
      vertex 13.6749 28.3482 0
    endloop
  endfacet
  facet normal 0.677281 0.735724 -0
    outer loop
      vertex 12.7348 30.0853 0
      vertex 11.2817 31.423 2
      vertex 12.7348 30.0853 2
    endloop
  endfacet
  facet normal 0.677281 0.735724 0
    outer loop
      vertex 11.2817 31.423 2
      vertex 12.7348 30.0853 0
      vertex 11.2817 31.423 0
    endloop
  endfacet
  facet normal 0.401693 0.915774 -0
    outer loop
      vertex 11.2817 31.423 0
      vertex 9.4729 32.2164 2
      vertex 11.2817 31.423 2
    endloop
  endfacet
  facet normal 0.401693 0.915774 0
    outer loop
      vertex 9.4729 32.2164 2
      vertex 11.2817 31.423 0
      vertex 9.4729 32.2164 0
    endloop
  endfacet
  facet normal 0.0825781 0.996585 -0
    outer loop
      vertex 9.4729 32.2164 0
      vertex 7.50453 32.3795 2
      vertex 9.4729 32.2164 2
    endloop
  endfacet
  facet normal 0.0825781 0.996585 0
    outer loop
      vertex 7.50453 32.3795 2
      vertex 9.4729 32.2164 0
      vertex 7.50453 32.3795 0
    endloop
  endfacet
  facet normal -0.245484 0.969401 0
    outer loop
      vertex 7.50453 32.3795 0
      vertex 5.58983 31.8946 2
      vertex 7.50453 32.3795 2
    endloop
  endfacet
  facet normal -0.245484 0.969401 0
    outer loop
      vertex 5.58983 31.8946 2
      vertex 7.50453 32.3795 0
      vertex 5.58983 31.8946 0
    endloop
  endfacet
  facet normal -0.54695 0.837166 0
    outer loop
      vertex 5.58983 31.8946 0
      vertex 3.93633 30.8143 2
      vertex 5.58983 31.8946 2
    endloop
  endfacet
  facet normal -0.54695 0.837166 0
    outer loop
      vertex 3.93633 30.8143 2
      vertex 5.58983 31.8946 0
      vertex 3.93633 30.8143 0
    endloop
  endfacet
  facet normal -0.789137 0.614218 0
    outer loop
      vertex 2.72316 29.2557 0
      vertex 3.93633 30.8143 2
      vertex 3.93633 30.8143 0
    endloop
  endfacet
  facet normal -0.789137 0.614218 0
    outer loop
      vertex 3.93633 30.8143 2
      vertex 2.72316 29.2557 0
      vertex 2.72316 29.2557 2
    endloop
  endfacet
  facet normal -0.945817 0.3247 0
    outer loop
      vertex 2.08183 27.3876 0
      vertex 2.72316 29.2557 2
      vertex 2.72316 29.2557 0
    endloop
  endfacet
  facet normal -0.945817 0.3247 0
    outer loop
      vertex 2.72316 29.2557 2
      vertex 2.08183 27.3876 0
      vertex 2.08183 27.3876 2
    endloop
  endfacet
  facet normal -1 0 0
    outer loop
      vertex 2.08183 25.4124 0
      vertex 2.08183 27.3876 2
      vertex 2.08183 27.3876 0
    endloop
  endfacet
  facet normal -1 -0 0
    outer loop
      vertex 2.08183 27.3876 2
      vertex 2.08183 25.4124 0
      vertex 2.08183 25.4124 2
    endloop
  endfacet
  facet normal -0.945817 -0.3247 0
    outer loop
      vertex 2.72316 23.5443 0
      vertex 2.08183 25.4124 2
      vertex 2.08183 25.4124 0
    endloop
  endfacet
  facet normal -0.945817 -0.3247 0
    outer loop
      vertex 2.08183 25.4124 2
      vertex 2.72316 23.5443 0
      vertex 2.72316 23.5443 2
    endloop
  endfacet
  facet normal -0.789137 -0.614218 0
    outer loop
      vertex 3.93633 21.9857 0
      vertex 2.72316 23.5443 2
      vertex 2.72316 23.5443 0
    endloop
  endfacet
  facet normal -0.789137 -0.614218 0
    outer loop
      vertex 2.72316 23.5443 2
      vertex 3.93633 21.9857 0
      vertex 3.93633 21.9857 2
    endloop
  endfacet
  facet normal -0.54695 -0.837166 0
    outer loop
      vertex 3.93633 21.9857 0
      vertex 5.58983 20.9054 2
      vertex 3.93633 21.9857 2
    endloop
  endfacet
  facet normal -0.54695 -0.837166 -0
    outer loop
      vertex 5.58983 20.9054 2
      vertex 3.93633 21.9857 0
      vertex 5.58983 20.9054 0
    endloop
  endfacet
  facet normal -0.245484 -0.969401 0
    outer loop
      vertex 5.58983 20.9054 0
      vertex 6 20.8015 2
      vertex 5.58983 20.9054 2
    endloop
  endfacet
  facet normal -0.245484 -0.969401 -0
    outer loop
      vertex 6 20.8015 2
      vertex 5.58983 20.9054 0
      vertex 6 20.8015 0
    endloop
  endfacet
  facet normal 0.568063 0.822985 -0
    outer loop
      vertex 6.08894 23 0
      vertex 5.00597 23.7475 2
      vertex 6.08894 23 2
    endloop
  endfacet
  facet normal 0.568063 0.822985 0
    outer loop
      vertex 5.00597 23.7475 2
      vertex 6.08894 23 0
      vertex 5.00597 23.7475 0
    endloop
  endfacet
  facet normal 0.885455 0.464725 0
    outer loop
      vertex 5.00597 23.7475 2
      vertex 4.11624 25.4427 0
      vertex 4.11624 25.4427 2
    endloop
  endfacet
  facet normal 0.885455 0.464725 0
    outer loop
      vertex 4.11624 25.4427 0
      vertex 5.00597 23.7475 2
      vertex 5.00597 23.7475 0
    endloop
  endfacet
  facet normal 1 -0 0
    outer loop
      vertex 4.11624 25.4427 2
      vertex 4.11624 27.3573 0
      vertex 4.11624 27.3573 2
    endloop
  endfacet
  facet normal 1 0 0
    outer loop
      vertex 4.11624 27.3573 0
      vertex 4.11624 25.4427 2
      vertex 4.11624 25.4427 0
    endloop
  endfacet
  facet normal 0.885455 -0.464725 0
    outer loop
      vertex 4.11624 27.3573 2
      vertex 5.00597 29.0525 0
      vertex 5.00597 29.0525 2
    endloop
  endfacet
  facet normal 0.885455 -0.464725 0
    outer loop
      vertex 5.00597 29.0525 0
      vertex 4.11624 27.3573 2
      vertex 4.11624 27.3573 0
    endloop
  endfacet
  facet normal 0.568063 -0.822985 0
    outer loop
      vertex 5.00597 29.0525 0
      vertex 6.58159 30.1401 2
      vertex 5.00597 29.0525 2
    endloop
  endfacet
  facet normal 0.568063 -0.822985 0
    outer loop
      vertex 6.58159 30.1401 2
      vertex 5.00597 29.0525 0
      vertex 6.58159 30.1401 0
    endloop
  endfacet
  facet normal 0.12054 -0.992708 0
    outer loop
      vertex 6.58159 30.1401 0
      vertex 8.48213 30.3708 2
      vertex 6.58159 30.1401 2
    endloop
  endfacet
  facet normal 0.12054 -0.992708 0
    outer loop
      vertex 8.48213 30.3708 2
      vertex 6.58159 30.1401 0
      vertex 8.48213 30.3708 0
    endloop
  endfacet
  facet normal -0.354602 -0.935017 0
    outer loop
      vertex 8.48213 30.3708 0
      vertex 10.2722 29.6919 2
      vertex 8.48213 30.3708 2
    endloop
  endfacet
  facet normal -0.354602 -0.935017 -0
    outer loop
      vertex 10.2722 29.6919 2
      vertex 8.48213 30.3708 0
      vertex 10.2722 29.6919 0
    endloop
  endfacet
  facet normal -0.748512 -0.663121 0
    outer loop
      vertex 11.5418 28.2589 0
      vertex 10.2722 29.6919 2
      vertex 10.2722 29.6919 0
    endloop
  endfacet
  facet normal -0.748512 -0.663121 0
    outer loop
      vertex 10.2722 29.6919 2
      vertex 11.5418 28.2589 0
      vertex 11.5418 28.2589 2
    endloop
  endfacet
  facet normal -0.97094 -0.239324 0
    outer loop
      vertex 12 26.4 0
      vertex 11.5418 28.2589 2
      vertex 11.5418 28.2589 0
    endloop
  endfacet
  facet normal -0.97094 -0.239324 0
    outer loop
      vertex 11.5418 28.2589 2
      vertex 12 26.4 0
      vertex 12 26.4 2
    endloop
  endfacet
  facet normal -0.97094 0.239324 0
    outer loop
      vertex 11.5418 24.5411 0
      vertex 12 26.4 2
      vertex 12 26.4 0
    endloop
  endfacet
  facet normal -0.97094 0.239324 0
    outer loop
      vertex 12 26.4 2
      vertex 11.5418 24.5411 0
      vertex 11.5418 24.5411 2
    endloop
  endfacet
  facet normal -0.748512 0.663121 0
    outer loop
      vertex 10.2722 23.1081 0
      vertex 11.5418 24.5411 2
      vertex 11.5418 24.5411 0
    endloop
  endfacet
  facet normal -0.748512 0.663121 0
    outer loop
      vertex 11.5418 24.5411 2
      vertex 10.2722 23.1081 0
      vertex 10.2722 23.1081 2
    endloop
  endfacet
  facet normal -0.354602 0.935017 0
    outer loop
      vertex 10.2722 23.1081 0
      vertex 9.98729 23 2
      vertex 10.2722 23.1081 2
    endloop
  endfacet
  facet normal -0.354602 0.935017 0
    outer loop
      vertex 9.98729 23 2
      vertex 10.2722 23.1081 0
      vertex 9.98729 23 0
    endloop
  endfacet
  facet normal 0 0 1
    outer loop
      vertex 16 0 3
      vertex 20 0 3
      vertex 19.5629 4.15823 3
    endloop
  endfacet
  facet normal 0 0 1
    outer loop
      vertex 15.6504 3.32658 3
      vertex 19.5629 4.15823 3
      vertex 18.2709 8.13472 3
    endloop
  endfacet
  facet normal 0 0 1
    outer loop
      vertex 20 0 3
      vertex 16 0 3
      vertex 19.5629 -4.15823 3
    endloop
  endfacet
  facet normal 0 0 1
    outer loop
      vertex 14.6167 6.50778 3
      vertex 18.2709 8.13472 3
      vertex 16.1803 11.7557 3
    endloop
  endfacet
  facet normal -0 0 1
    outer loop
      vertex 15.6504 -3.32658 3
      vertex 19.5629 -4.15823 3
      vertex 16 0 3
    endloop
  endfacet
  facet normal 0 0 1
    outer loop
      vertex 19.5629 -4.15823 3
      vertex 15.6504 -3.32658 3
      vertex 18.2709 -8.13472 3
    endloop
  endfacet
  facet normal 0 0 1
    outer loop
      vertex 19.5629 4.15823 3
      vertex 15.6504 3.32658 3
      vertex 16 0 3
    endloop
  endfacet
  facet normal 0 0 1
    outer loop
      vertex 18.2709 8.13472 3
      vertex 14.6167 6.50778 3
      vertex 15.6504 3.32658 3
    endloop
  endfacet
  facet normal 0 0 1
    outer loop
      vertex 12.9443 9.40456 3
      vertex 16.1803 11.7557 3
      vertex 13.3826 14.8629 3
    endloop
  endfacet
  facet normal 0 0 1
    outer loop
      vertex 16.1803 11.7557 3
      vertex 12.9443 9.40456 3
      vertex 14.6167 6.50778 3
    endloop
  endfacet
  facet normal 0 0 1
    outer loop
      vertex 13.3826 14.8629 3
      vertex 10.7061 11.8903 3
      vertex 12.9443 9.40456 3
    endloop
  endfacet
  facet normal 0 0 1
    outer loop
      vertex 10 12.4033 3
      vertex 13.3826 14.8629 3
      vertex 10 17.3205 3
    endloop
  endfacet
  facet normal 0 0 1
    outer loop
      vertex 13.3826 14.8629 3
      vertex 10 12.4033 3
      vertex 10.7061 11.8903 3
    endloop
  endfacet
  facet normal -0 0 1
    outer loop
      vertex 14.6167 -6.50778 3
      vertex 18.2709 -8.13472 3
      vertex 15.6504 -3.32658 3
    endloop
  endfacet
  facet normal 0 0 1
    outer loop
      vertex 18.2709 -8.13472 3
      vertex 14.6167 -6.50778 3
      vertex 16.1803 -11.7557 3
    endloop
  endfacet
  facet normal -0 0 1
    outer loop
      vertex 12.9443 -9.40456 3
      vertex 16.1803 -11.7557 3
      vertex 14.6167 -6.50778 3
    endloop
  endfacet
  facet normal 0 0 1
    outer loop
      vertex 16.1803 -11.7557 3
      vertex 12.9443 -9.40456 3
      vertex 13.3826 -14.8629 3
    endloop
  endfacet
  facet normal -0 0 1
    outer loop
      vertex 10.7061 -11.8903 3
      vertex 13.3826 -14.8629 3
      vertex 12.9443 -9.40456 3
    endloop
  endfacet
  facet normal 0 0 1
    outer loop
      vertex 10.7061 -11.8903 3
      vertex 10 -17.3205 3
      vertex 13.3826 -14.8629 3
    endloop
  endfacet
  facet normal -0 0 1
    outer loop
      vertex 8 -13.8564 3
      vertex 10 -17.3205 3
      vertex 10.7061 -11.8903 3
    endloop
  endfacet
  facet normal 0 0 1
    outer loop
      vertex 8 -13.8564 3
      vertex 6.18033 -19.0211 3
      vertex 10 -17.3205 3
    endloop
  endfacet
  facet normal -0 0 1
    outer loop
      vertex 4.94426 -15.2169 3
      vertex 6.18033 -19.0211 3
      vertex 8 -13.8564 3
    endloop
  endfacet
  facet normal 0 0 1
    outer loop
      vertex 4.94426 -15.2169 3
      vertex 2.09056 -19.8904 3
      vertex 6.18033 -19.0211 3
    endloop
  endfacet
  facet normal -0 0 1
    outer loop
      vertex 1.67245 -15.9123 3
      vertex 2.09056 -19.8904 3
      vertex 4.94426 -15.2169 3
    endloop
  endfacet
  facet normal -0 0 1
    outer loop
      vertex -1.67245 -15.9123 3
      vertex 2.09056 -19.8904 3
      vertex 1.67245 -15.9123 3
    endloop
  endfacet
  facet normal 0 0 1
    outer loop
      vertex -1.67245 -15.9123 3
      vertex -2.09056 -19.8904 3
      vertex 2.09056 -19.8904 3
    endloop
  endfacet
  facet normal 0 0 1
    outer loop
      vertex -6 -19.0594 3
      vertex -1.67245 -15.9123 3
      vertex -4.94426 -15.2169 3
    endloop
  endfacet
  facet normal 0 0 1
    outer loop
      vertex -6 -19.0594 3
      vertex -4.94426 -15.2169 3
      vertex -5.99999 -14.7469 3
    endloop
  endfacet
  facet normal 0 0 1
    outer loop
      vertex -1.67245 -15.9123 3
      vertex -6 -19.0594 3
      vertex -2.09056 -19.8904 3
    endloop
  endfacet
  facet normal 0 0 1
    outer loop
      vertex 6 19.0594 3
      vertex 4.94426 15.2169 3
      vertex 5.99999 14.7469 3
    endloop
  endfacet
  facet normal 0 0 1
    outer loop
      vertex 1.67245 15.9123 3
      vertex 6 19.0594 3
      vertex 2.09056 19.8904 3
    endloop
  endfacet
  facet normal 0 0 1
    outer loop
      vertex 6 19.0594 3
      vertex 1.67245 15.9123 3
      vertex 4.94426 15.2169 3
    endloop
  endfacet
  facet normal 0 0 1
    outer loop
      vertex 2.09056 19.8904 3
      vertex -1.67245 15.9123 3
      vertex 1.67245 15.9123 3
    endloop
  endfacet
  facet normal -0 0 1
    outer loop
      vertex -2.09056 19.8904 3
      vertex -1.67245 15.9123 3
      vertex 2.09056 19.8904 3
    endloop
  endfacet
  facet normal 0 0 1
    outer loop
      vertex -2.09056 19.8904 3
      vertex -4.94426 15.2169 3
      vertex -1.67245 15.9123 3
    endloop
  endfacet
  facet normal -0 0 1
    outer loop
      vertex -6.18033 19.0211 3
      vertex -4.94426 15.2169 3
      vertex -2.09056 19.8904 3
    endloop
  endfacet
  facet normal 0 0 1
    outer loop
      vertex -6.18033 19.0211 3
      vertex -7.99998 13.8564 3
      vertex -4.94426 15.2169 3
    endloop
  endfacet
  facet normal -0 0 1
    outer loop
      vertex -9.99998 17.3205 3
      vertex -7.99998 13.8564 3
      vertex -6.18033 19.0211 3
    endloop
  endfacet
  facet normal 0 0 1
    outer loop
      vertex -9.99998 17.3205 3
      vertex -10.7061 11.8903 3
      vertex -7.99998 13.8564 3
    endloop
  endfacet
  facet normal -0 0 1
    outer loop
      vertex -13.3826 14.8629 3
      vertex -10.7061 11.8903 3
      vertex -9.99998 17.3205 3
    endloop
  endfacet
  facet normal 0 0 1
    outer loop
      vertex -10.7061 11.8903 3
      vertex -13.3826 14.8629 3
      vertex -12.9443 9.40456 3
    endloop
  endfacet
  facet normal -0 0 1
    outer loop
      vertex -16.1803 11.7557 3
      vertex -12.9443 9.40456 3
      vertex -13.3826 14.8629 3
    endloop
  endfacet
  facet normal 0 0 1
    outer loop
      vertex -12.9443 9.40456 3
      vertex -16.1803 11.7557 3
      vertex -14.6167 6.50778 3
    endloop
  endfacet
  facet normal 0 0 1
    outer loop
      vertex -14.6167 6.50778 3
      vertex -18.2709 8.13472 3
      vertex -15.6504 3.32658 3
    endloop
  endfacet
  facet normal -0 0 1
    outer loop
      vertex -18.2709 8.13472 3
      vertex -14.6167 6.50778 3
      vertex -16.1803 11.7557 3
    endloop
  endfacet
  facet normal 0 0 1
    outer loop
      vertex -13.3826 -14.8629 3
      vertex -10 -12.4033 3
      vertex -10.7061 -11.8903 3
    endloop
  endfacet
  facet normal 0 0 1
    outer loop
      vertex -13.3826 -14.8629 3
      vertex -10.7061 -11.8903 3
      vertex -12.9443 -9.40456 3
    endloop
  endfacet
  facet normal 0 0 1
    outer loop
      vertex -10 -12.4033 3
      vertex -13.3826 -14.8629 3
      vertex -10 -17.3205 3
    endloop
  endfacet
  facet normal 0 0 1
    outer loop
      vertex -16.1803 -11.7557 3
      vertex -12.9443 -9.40456 3
      vertex -14.6167 -6.50778 3
    endloop
  endfacet
  facet normal 0 0 1
    outer loop
      vertex -18.2709 -8.13472 3
      vertex -14.6167 -6.50778 3
      vertex -15.6504 -3.32658 3
    endloop
  endfacet
  facet normal 0 0 1
    outer loop
      vertex -12.9443 -9.40456 3
      vertex -16.1803 -11.7557 3
      vertex -13.3826 -14.8629 3
    endloop
  endfacet
  facet normal 0 0 1
    outer loop
      vertex -19.5629 -4.15823 3
      vertex -15.6504 -3.32658 3
      vertex -16 0 3
    endloop
  endfacet
  facet normal -0 0 1
    outer loop
      vertex -19.5629 4.15823 3
      vertex -15.6504 3.32658 3
      vertex -18.2709 8.13472 3
    endloop
  endfacet
  facet normal 0 0 1
    outer loop
      vertex -15.6504 3.32658 3
      vertex -19.5629 4.15823 3
      vertex -16 0 3
    endloop
  endfacet
  facet normal 0 0 1
    outer loop
      vertex -14.6167 -6.50778 3
      vertex -18.2709 -8.13472 3
      vertex -16.1803 -11.7557 3
    endloop
  endfacet
  facet normal 0 0 1
    outer loop
      vertex -20 0 3
      vertex -16 0 3
      vertex -19.5629 4.15823 3
    endloop
  endfacet
  facet normal 0 0 1
    outer loop
      vertex -15.6504 -3.32658 3
      vertex -19.5629 -4.15823 3
      vertex -18.2709 -8.13472 3
    endloop
  endfacet
  facet normal 0 0 1
    outer loop
      vertex -16 0 3
      vertex -20 0 3
      vertex -19.5629 -4.15823 3
    endloop
  endfacet
  facet normal 0.406736 -0.913546 0
    outer loop
      vertex 6.18033 -19.0211 0
      vertex 10 -17.3205 3
      vertex 6.18033 -19.0211 3
    endloop
  endfacet
  facet normal 0.406736 -0.913546 0
    outer loop
      vertex 10 -17.3205 3
      vertex 6.18033 -19.0211 0
      vertex 10 -17.3205 0
    endloop
  endfacet
  facet normal 0.587787 -0.809016 0
    outer loop
      vertex 10 -17.3205 0
      vertex 13.3826 -14.8629 3
      vertex 10 -17.3205 3
    endloop
  endfacet
  facet normal 0.587787 -0.809016 0
    outer loop
      vertex 13.3826 -14.8629 3
      vertex 10 -17.3205 0
      vertex 13.3826 -14.8629 0
    endloop
  endfacet
  facet normal 0.743145 -0.669131 0
    outer loop
      vertex 13.3826 -14.8629 3
      vertex 16.1803 -11.7557 0
      vertex 16.1803 -11.7557 3
    endloop
  endfacet
  facet normal 0.743145 -0.669131 0
    outer loop
      vertex 16.1803 -11.7557 0
      vertex 13.3826 -14.8629 3
      vertex 13.3826 -14.8629 0
    endloop
  endfacet
  facet normal 0.866025 -0.500001 0
    outer loop
      vertex 16.1803 -11.7557 3
      vertex 18.2709 -8.13472 0
      vertex 18.2709 -8.13472 3
    endloop
  endfacet
  facet normal 0.866025 -0.500001 0
    outer loop
      vertex 18.2709 -8.13472 0
      vertex 16.1803 -11.7557 3
      vertex 16.1803 -11.7557 0
    endloop
  endfacet
  facet normal 0.951057 -0.309017 0
    outer loop
      vertex 18.2709 -8.13472 3
      vertex 19.5629 -4.15823 0
      vertex 19.5629 -4.15823 3
    endloop
  endfacet
  facet normal 0.951057 -0.309017 0
    outer loop
      vertex 19.5629 -4.15823 0
      vertex 18.2709 -8.13472 3
      vertex 18.2709 -8.13472 0
    endloop
  endfacet
  facet normal 0.994522 -0.104531 0
    outer loop
      vertex 19.5629 -4.15823 3
      vertex 20 0 0
      vertex 20 0 3
    endloop
  endfacet
  facet normal 0.994522 -0.104531 0
    outer loop
      vertex 20 0 0
      vertex 19.5629 -4.15823 3
      vertex 19.5629 -4.15823 0
    endloop
  endfacet
  facet normal 0.994522 0.104531 0
    outer loop
      vertex 20 0 3
      vertex 19.5629 4.15823 0
      vertex 19.5629 4.15823 3
    endloop
  endfacet
  facet normal 0.994522 0.104531 0
    outer loop
      vertex 19.5629 4.15823 0
      vertex 20 0 3
      vertex 20 0 0
    endloop
  endfacet
  facet normal 0.951057 0.309017 0
    outer loop
      vertex 19.5629 4.15823 3
      vertex 18.2709 8.13472 0
      vertex 18.2709 8.13472 3
    endloop
  endfacet
  facet normal 0.951057 0.309017 0
    outer loop
      vertex 18.2709 8.13472 0
      vertex 19.5629 4.15823 3
      vertex 19.5629 4.15823 0
    endloop
  endfacet
  facet normal 0.866025 0.500001 0
    outer loop
      vertex 18.2709 8.13472 3
      vertex 16.1803 11.7557 0
      vertex 16.1803 11.7557 3
    endloop
  endfacet
  facet normal 0.866025 0.500001 0
    outer loop
      vertex 16.1803 11.7557 0
      vertex 18.2709 8.13472 3
      vertex 18.2709 8.13472 0
    endloop
  endfacet
  facet normal 0.743145 0.669131 0
    outer loop
      vertex 16.1803 11.7557 3
      vertex 13.3826 14.8629 0
      vertex 13.3826 14.8629 3
    endloop
  endfacet
  facet normal 0.743145 0.669131 0
    outer loop
      vertex 13.3826 14.8629 0
      vertex 16.1803 11.7557 3
      vertex 16.1803 11.7557 0
    endloop
  endfacet
  facet normal 0.587787 0.809016 -0
    outer loop
      vertex 13.3826 14.8629 0
      vertex 10 17.3205 3
      vertex 13.3826 14.8629 3
    endloop
  endfacet
  facet normal 0.587787 0.809016 0
    outer loop
      vertex 10 17.3205 3
      vertex 13.3826 14.8629 0
      vertex 10 17.3205 0
    endloop
  endfacet
  facet normal 0.207912 0.978147 -0
    outer loop
      vertex 6 19.0594 0
      vertex 2.09056 19.8904 3
      vertex 6 19.0594 3
    endloop
  endfacet
  facet normal 0.207912 0.978147 0
    outer loop
      vertex 2.09056 19.8904 3
      vertex 6 19.0594 0
      vertex 2.09056 19.8904 0
    endloop
  endfacet
  facet normal 0 1 -0
    outer loop
      vertex 2.09056 19.8904 0
      vertex -2.09056 19.8904 3
      vertex 2.09056 19.8904 3
    endloop
  endfacet
  facet normal 0 1 0
    outer loop
      vertex -2.09056 19.8904 3
      vertex 2.09056 19.8904 0
      vertex -2.09056 19.8904 0
    endloop
  endfacet
  facet normal -0.207912 0.978148 0
    outer loop
      vertex -2.09056 19.8904 0
      vertex -6.18033 19.0211 3
      vertex -2.09056 19.8904 3
    endloop
  endfacet
  facet normal -0.207912 0.978148 0
    outer loop
      vertex -6.18033 19.0211 3
      vertex -2.09056 19.8904 0
      vertex -6.18033 19.0211 0
    endloop
  endfacet
  facet normal -0.406737 0.913545 0
    outer loop
      vertex -6.18033 19.0211 0
      vertex -9.99998 17.3205 3
      vertex -6.18033 19.0211 3
    endloop
  endfacet
  facet normal -0.406737 0.913545 0
    outer loop
      vertex -9.99998 17.3205 3
      vertex -6.18033 19.0211 0
      vertex -9.99998 17.3205 0
    endloop
  endfacet
  facet normal -0.587785 0.809017 0
    outer loop
      vertex -9.99998 17.3205 0
      vertex -13.3826 14.8629 3
      vertex -9.99998 17.3205 3
    endloop
  endfacet
  facet normal -0.587785 0.809017 0
    outer loop
      vertex -13.3826 14.8629 3
      vertex -9.99998 17.3205 0
      vertex -13.3826 14.8629 0
    endloop
  endfacet
  facet normal -0.743145 0.669131 0
    outer loop
      vertex -16.1803 11.7557 0
      vertex -13.3826 14.8629 3
      vertex -13.3826 14.8629 0
    endloop
  endfacet
  facet normal -0.743145 0.669131 0
    outer loop
      vertex -13.3826 14.8629 3
      vertex -16.1803 11.7557 0
      vertex -16.1803 11.7557 3
    endloop
  endfacet
  facet normal -0.866025 0.500001 0
    outer loop
      vertex -18.2709 8.13472 0
      vertex -16.1803 11.7557 3
      vertex -16.1803 11.7557 0
    endloop
  endfacet
  facet normal -0.866025 0.500001 0
    outer loop
      vertex -16.1803 11.7557 3
      vertex -18.2709 8.13472 0
      vertex -18.2709 8.13472 3
    endloop
  endfacet
  facet normal -0.951057 0.309017 0
    outer loop
      vertex -19.5629 4.15823 0
      vertex -18.2709 8.13472 3
      vertex -18.2709 8.13472 0
    endloop
  endfacet
  facet normal -0.951057 0.309017 0
    outer loop
      vertex -18.2709 8.13472 3
      vertex -19.5629 4.15823 0
      vertex -19.5629 4.15823 3
    endloop
  endfacet
  facet normal -0.994522 0.104531 0
    outer loop
      vertex -20 0 0
      vertex -19.5629 4.15823 3
      vertex -19.5629 4.15823 0
    endloop
  endfacet
  facet normal -0.994522 0.104531 0
    outer loop
      vertex -19.5629 4.15823 3
      vertex -20 0 0
      vertex -20 0 3
    endloop
  endfacet
  facet normal -0.994522 -0.104531 0
    outer loop
      vertex -19.5629 -4.15823 0
      vertex -20 0 3
      vertex -20 0 0
    endloop
  endfacet
  facet normal -0.994522 -0.104531 0
    outer loop
      vertex -20 0 3
      vertex -19.5629 -4.15823 0
      vertex -19.5629 -4.15823 3
    endloop
  endfacet
  facet normal -0.951057 -0.309017 0
    outer loop
      vertex -18.2709 -8.13472 0
      vertex -19.5629 -4.15823 3
      vertex -19.5629 -4.15823 0
    endloop
  endfacet
  facet normal -0.951057 -0.309017 0
    outer loop
      vertex -19.5629 -4.15823 3
      vertex -18.2709 -8.13472 0
      vertex -18.2709 -8.13472 3
    endloop
  endfacet
  facet normal -0.866025 -0.500001 0
    outer loop
      vertex -16.1803 -11.7557 0
      vertex -18.2709 -8.13472 3
      vertex -18.2709 -8.13472 0
    endloop
  endfacet
  facet normal -0.866025 -0.500001 0
    outer loop
      vertex -18.2709 -8.13472 3
      vertex -16.1803 -11.7557 0
      vertex -16.1803 -11.7557 3
    endloop
  endfacet
  facet normal -0.743145 -0.669131 0
    outer loop
      vertex -13.3826 -14.8629 0
      vertex -16.1803 -11.7557 3
      vertex -16.1803 -11.7557 0
    endloop
  endfacet
  facet normal -0.743145 -0.669131 0
    outer loop
      vertex -16.1803 -11.7557 3
      vertex -13.3826 -14.8629 0
      vertex -13.3826 -14.8629 3
    endloop
  endfacet
  facet normal -0.587787 -0.809016 0
    outer loop
      vertex -13.3826 -14.8629 0
      vertex -10 -17.3205 3
      vertex -13.3826 -14.8629 3
    endloop
  endfacet
  facet normal -0.587787 -0.809016 -0
    outer loop
      vertex -10 -17.3205 3
      vertex -13.3826 -14.8629 0
      vertex -10 -17.3205 0
    endloop
  endfacet
  facet normal -0.207912 -0.978147 0
    outer loop
      vertex -6 -19.0594 0
      vertex -2.09056 -19.8904 3
      vertex -6 -19.0594 3
    endloop
  endfacet
  facet normal -0.207912 -0.978147 -0
    outer loop
      vertex -2.09056 -19.8904 3
      vertex -6 -19.0594 0
      vertex -2.09056 -19.8904 0
    endloop
  endfacet
  facet normal 0 -1 0
    outer loop
      vertex -2.09056 -19.8904 0
      vertex 2.09056 -19.8904 3
      vertex -2.09056 -19.8904 3
    endloop
  endfacet
  facet normal 0 -1 -0
    outer loop
      vertex 2.09056 -19.8904 3
      vertex -2.09056 -19.8904 0
      vertex 2.09056 -19.8904 0
    endloop
  endfacet
  facet normal 0.207912 -0.978148 0
    outer loop
      vertex 2.09056 -19.8904 0
      vertex 6.18033 -19.0211 3
      vertex 2.09056 -19.8904 3
    endloop
  endfacet
  facet normal 0.207912 -0.978148 0
    outer loop
      vertex 6.18033 -19.0211 3
      vertex 2.09056 -19.8904 0
      vertex 6.18033 -19.0211 0
    endloop
  endfacet
  facet normal 0.207909 0.978148 -0
    outer loop
      vertex -1.67245 -15.9123 0
      vertex -4.94426 -15.2169 3
      vertex -1.67245 -15.9123 3
    endloop
  endfacet
  facet normal 0.207909 0.978148 0
    outer loop
      vertex -4.94426 -15.2169 3
      vertex -1.67245 -15.9123 0
      vertex -4.94426 -15.2169 0
    endloop
  endfacet
  facet normal 0.406737 0.913545 -0
    outer loop
      vertex -4.94426 -15.2169 0
      vertex -5.99999 -14.7469 3
      vertex -4.94426 -15.2169 3
    endloop
  endfacet
  facet normal 0.406737 0.913545 0
    outer loop
      vertex -5.99999 -14.7469 3
      vertex -4.94426 -15.2169 0
      vertex -5.99999 -14.7469 0
    endloop
  endfacet
  facet normal 0.587787 0.809015 -0
    outer loop
      vertex -10 -12.4033 0
      vertex -10.7061 -11.8903 3
      vertex -10 -12.4033 3
    endloop
  endfacet
  facet normal 0.587787 0.809015 0
    outer loop
      vertex -10.7061 -11.8903 3
      vertex -10 -12.4033 0
      vertex -10.7061 -11.8903 0
    endloop
  endfacet
  facet normal 0.743145 0.66913 0
    outer loop
      vertex -10.7061 -11.8903 3
      vertex -12.9443 -9.40456 0
      vertex -12.9443 -9.40456 3
    endloop
  endfacet
  facet normal 0.743145 0.66913 0
    outer loop
      vertex -12.9443 -9.40456 0
      vertex -10.7061 -11.8903 3
      vertex -10.7061 -11.8903 0
    endloop
  endfacet
  facet normal 0.866025 0.5 0
    outer loop
      vertex -12.9443 -9.40456 3
      vertex -14.6167 -6.50778 0
      vertex -14.6167 -6.50778 3
    endloop
  endfacet
  facet normal 0.866025 0.5 0
    outer loop
      vertex -14.6167 -6.50778 0
      vertex -12.9443 -9.40456 3
      vertex -12.9443 -9.40456 0
    endloop
  endfacet
  facet normal 0.951055 0.30902 0
    outer loop
      vertex -14.6167 -6.50778 3
      vertex -15.6504 -3.32658 0
      vertex -15.6504 -3.32658 3
    endloop
  endfacet
  facet normal 0.951055 0.30902 0
    outer loop
      vertex -15.6504 -3.32658 0
      vertex -14.6167 -6.50778 3
      vertex -14.6167 -6.50778 0
    endloop
  endfacet
  facet normal 0.994522 0.104529 0
    outer loop
      vertex -15.6504 -3.32658 3
      vertex -16 0 0
      vertex -16 0 3
    endloop
  endfacet
  facet normal 0.994522 0.104529 0
    outer loop
      vertex -16 0 0
      vertex -15.6504 -3.32658 3
      vertex -15.6504 -3.32658 0
    endloop
  endfacet
  facet normal 0.994522 -0.104529 0
    outer loop
      vertex -16 0 3
      vertex -15.6504 3.32658 0
      vertex -15.6504 3.32658 3
    endloop
  endfacet
  facet normal 0.994522 -0.104529 0
    outer loop
      vertex -15.6504 3.32658 0
      vertex -16 0 3
      vertex -16 0 0
    endloop
  endfacet
  facet normal 0.951055 -0.30902 0
    outer loop
      vertex -15.6504 3.32658 3
      vertex -14.6167 6.50778 0
      vertex -14.6167 6.50778 3
    endloop
  endfacet
  facet normal 0.951055 -0.30902 0
    outer loop
      vertex -14.6167 6.50778 0
      vertex -15.6504 3.32658 3
      vertex -15.6504 3.32658 0
    endloop
  endfacet
  facet normal 0.866025 -0.5 0
    outer loop
      vertex -14.6167 6.50778 3
      vertex -12.9443 9.40456 0
      vertex -12.9443 9.40456 3
    endloop
  endfacet
  facet normal 0.866025 -0.5 0
    outer loop
      vertex -12.9443 9.40456 0
      vertex -14.6167 6.50778 3
      vertex -14.6167 6.50778 0
    endloop
  endfacet
  facet normal 0.743145 -0.66913 0
    outer loop
      vertex -12.9443 9.40456 3
      vertex -10.7061 11.8903 0
      vertex -10.7061 11.8903 3
    endloop
  endfacet
  facet normal 0.743145 -0.66913 0
    outer loop
      vertex -10.7061 11.8903 0
      vertex -12.9443 9.40456 3
      vertex -12.9443 9.40456 0
    endloop
  endfacet
  facet normal 0.587785 -0.809017 0
    outer loop
      vertex -10.7061 11.8903 0
      vertex -7.99998 13.8564 3
      vertex -10.7061 11.8903 3
    endloop
  endfacet
  facet normal 0.587785 -0.809017 0
    outer loop
      vertex -7.99998 13.8564 3
      vertex -10.7061 11.8903 0
      vertex -7.99998 13.8564 0
    endloop
  endfacet
  facet normal 0.406739 -0.913545 0
    outer loop
      vertex -7.99998 13.8564 0
      vertex -4.94426 15.2169 3
      vertex -7.99998 13.8564 3
    endloop
  endfacet
  facet normal 0.406739 -0.913545 0
    outer loop
      vertex -4.94426 15.2169 3
      vertex -7.99998 13.8564 0
      vertex -4.94426 15.2169 0
    endloop
  endfacet
  facet normal 0.207909 -0.978148 0
    outer loop
      vertex -4.94426 15.2169 0
      vertex -1.67245 15.9123 3
      vertex -4.94426 15.2169 3
    endloop
  endfacet
  facet normal 0.207909 -0.978148 0
    outer loop
      vertex -1.67245 15.9123 3
      vertex -4.94426 15.2169 0
      vertex -1.67245 15.9123 0
    endloop
  endfacet
  facet normal 0 -1 0
    outer loop
      vertex -1.67245 15.9123 0
      vertex 1.67245 15.9123 3
      vertex -1.67245 15.9123 3
    endloop
  endfacet
  facet normal 0 -1 -0
    outer loop
      vertex 1.67245 15.9123 3
      vertex -1.67245 15.9123 0
      vertex 1.67245 15.9123 0
    endloop
  endfacet
  facet normal -0.207909 -0.978148 0
    outer loop
      vertex 1.67245 15.9123 0
      vertex 4.94426 15.2169 3
      vertex 1.67245 15.9123 3
    endloop
  endfacet
  facet normal -0.207909 -0.978148 -0
    outer loop
      vertex 4.94426 15.2169 3
      vertex 1.67245 15.9123 0
      vertex 4.94426 15.2169 0
    endloop
  endfacet
  facet normal -0.406737 -0.913545 0
    outer loop
      vertex 4.94426 15.2169 0
      vertex 5.99999 14.7469 3
      vertex 4.94426 15.2169 3
    endloop
  endfacet
  facet normal -0.406737 -0.913545 -0
    outer loop
      vertex 5.99999 14.7469 3
      vertex 4.94426 15.2169 0
      vertex 5.99999 14.7469 0
    endloop
  endfacet
  facet normal -0.587787 -0.809015 0
    outer loop
      vertex 10 12.4033 0
      vertex 10.7061 11.8903 3
      vertex 10 12.4033 3
    endloop
  endfacet
  facet normal -0.587787 -0.809015 -0
    outer loop
      vertex 10.7061 11.8903 3
      vertex 10 12.4033 0
      vertex 10.7061 11.8903 0
    endloop
  endfacet
  facet normal -0.743145 -0.66913 0
    outer loop
      vertex 12.9443 9.40456 0
      vertex 10.7061 11.8903 3
      vertex 10.7061 11.8903 0
    endloop
  endfacet
  facet normal -0.743145 -0.66913 0
    outer loop
      vertex 10.7061 11.8903 3
      vertex 12.9443 9.40456 0
      vertex 12.9443 9.40456 3
    endloop
  endfacet
  facet normal -0.866025 -0.5 0
    outer loop
      vertex 14.6167 6.50778 0
      vertex 12.9443 9.40456 3
      vertex 12.9443 9.40456 0
    endloop
  endfacet
  facet normal -0.866025 -0.5 0
    outer loop
      vertex 12.9443 9.40456 3
      vertex 14.6167 6.50778 0
      vertex 14.6167 6.50778 3
    endloop
  endfacet
  facet normal -0.951055 -0.30902 0
    outer loop
      vertex 15.6504 3.32658 0
      vertex 14.6167 6.50778 3
      vertex 14.6167 6.50778 0
    endloop
  endfacet
  facet normal -0.951055 -0.30902 0
    outer loop
      vertex 14.6167 6.50778 3
      vertex 15.6504 3.32658 0
      vertex 15.6504 3.32658 3
    endloop
  endfacet
  facet normal -0.994522 -0.104529 0
    outer loop
      vertex 16 0 0
      vertex 15.6504 3.32658 3
      vertex 15.6504 3.32658 0
    endloop
  endfacet
  facet normal -0.994522 -0.104529 0
    outer loop
      vertex 15.6504 3.32658 3
      vertex 16 0 0
      vertex 16 0 3
    endloop
  endfacet
  facet normal -0.994522 0.104529 0
    outer loop
      vertex 15.6504 -3.32658 0
      vertex 16 0 3
      vertex 16 0 0
    endloop
  endfacet
  facet normal -0.994522 0.104529 0
    outer loop
      vertex 16 0 3
      vertex 15.6504 -3.32658 0
      vertex 15.6504 -3.32658 3
    endloop
  endfacet
  facet normal -0.951055 0.30902 0
    outer loop
      vertex 14.6167 -6.50778 0
      vertex 15.6504 -3.32658 3
      vertex 15.6504 -3.32658 0
    endloop
  endfacet
  facet normal -0.951055 0.30902 0
    outer loop
      vertex 15.6504 -3.32658 3
      vertex 14.6167 -6.50778 0
      vertex 14.6167 -6.50778 3
    endloop
  endfacet
  facet normal -0.866025 0.5 0
    outer loop
      vertex 12.9443 -9.40456 0
      vertex 14.6167 -6.50778 3
      vertex 14.6167 -6.50778 0
    endloop
  endfacet
  facet normal -0.866025 0.5 0
    outer loop
      vertex 14.6167 -6.50778 3
      vertex 12.9443 -9.40456 0
      vertex 12.9443 -9.40456 3
    endloop
  endfacet
  facet normal -0.743145 0.66913 0
    outer loop
      vertex 10.7061 -11.8903 0
      vertex 12.9443 -9.40456 3
      vertex 12.9443 -9.40456 0
    endloop
  endfacet
  facet normal -0.743145 0.66913 0
    outer loop
      vertex 12.9443 -9.40456 3
      vertex 10.7061 -11.8903 0
      vertex 10.7061 -11.8903 3
    endloop
  endfacet
  facet normal -0.587787 0.809016 0
    outer loop
      vertex 10.7061 -11.8903 0
      vertex 8 -13.8564 3
      vertex 10.7061 -11.8903 3
    endloop
  endfacet
  facet normal -0.587787 0.809016 0
    outer loop
      vertex 8 -13.8564 3
      vertex 10.7061 -11.8903 0
      vertex 8 -13.8564 0
    endloop
  endfacet
  facet normal -0.406737 0.913545 0
    outer loop
      vertex 8 -13.8564 0
      vertex 4.94426 -15.2169 3
      vertex 8 -13.8564 3
    endloop
  endfacet
  facet normal -0.406737 0.913545 0
    outer loop
      vertex 4.94426 -15.2169 3
      vertex 8 -13.8564 0
      vertex 4.94426 -15.2169 0
    endloop
  endfacet
  facet normal -0.207909 0.978148 0
    outer loop
      vertex 4.94426 -15.2169 0
      vertex 1.67245 -15.9123 3
      vertex 4.94426 -15.2169 3
    endloop
  endfacet
  facet normal -0.207909 0.978148 0
    outer loop
      vertex 1.67245 -15.9123 3
      vertex 4.94426 -15.2169 0
      vertex 1.67245 -15.9123 0
    endloop
  endfacet
  facet normal 0 1 -0
    outer loop
      vertex 1.67245 -15.9123 0
      vertex -1.67245 -15.9123 3
      vertex 1.67245 -15.9123 3
    endloop
  endfacet
  facet normal 0 1 0
    outer loop
      vertex -1.67245 -15.9123 3
      vertex 1.67245 -15.9123 0
      vertex -1.67245 -15.9123 0
    endloop
  endfacet
  facet normal -0 0 1
    outer loop
      vertex -9.99998 11 5
      vertex -5.99998 2 5
      vertex -5.99998 11 5
    endloop
  endfacet
  facet normal 0 0 1
    outer loop
      vertex -5.99998 2 5
      vertex -9.99998 11 5
      vertex -5.99998 -2 5
    endloop
  endfacet
  facet normal 0 0 1
    outer loop
      vertex -10 -23 5
      vertex -5.99998 -2 5
      vertex -9.99998 11 5
    endloop
  endfacet
  facet normal 0 0 1
    outer loop
      vertex -5.99998 -2 5
      vertex -10 -23 5
      vertex -6 -23 5
    endloop
  endfacet
  facet normal -0 0 1
    outer loop
      vertex -5.99998 2 5
      vertex 5.99998 -2 5
      vertex 5.99998 2 5
    endloop
  endfacet
  facet normal 0 0 1
    outer loop
      vertex 5.99998 -2 5
      vertex -5.99998 2 5
      vertex -5.99998 -2 5
    endloop
  endfacet
  facet normal 0 0 1
    outer loop
      vertex 5.99998 2 5
      vertex 10 23 5
      vertex 6 23 5
    endloop
  endfacet
  facet normal 0 0 1
    outer loop
      vertex 10 23 5
      vertex 5.99998 2 5
      vertex 9.99998 -11 5
    endloop
  endfacet
  facet normal -0 0 1
    outer loop
      vertex 5.99998 -2 5
      vertex 9.99998 -11 5
      vertex 5.99998 2 5
    endloop
  endfacet
  facet normal 0 0 1
    outer loop
      vertex 9.99998 -11 5
      vertex 5.99998 -2 5
      vertex 5.99998 -11 5
    endloop
  endfacet
  facet normal 0 -1 0
    outer loop
      vertex -5.99998 -2 0
      vertex 5.99998 -2 5
      vertex -5.99998 -2 5
    endloop
  endfacet
  facet normal 0 -1 -0
    outer loop
      vertex 5.99998 -2 5
      vertex -5.99998 -2 0
      vertex 5.99998 -2 0
    endloop
  endfacet
  facet normal -1 0 0
    outer loop
      vertex 5.99998 -11 0
      vertex 5.99998 -2 5
      vertex 5.99998 -2 0
    endloop
  endfacet
  facet normal -1 -0 0
    outer loop
      vertex 5.99998 -2 5
      vertex 5.99998 -11 0
      vertex 5.99998 -11 5
    endloop
  endfacet
  facet normal 0 -1 0
    outer loop
      vertex 5.99998 -11 0
      vertex 9.99998 -11 5
      vertex 5.99998 -11 5
    endloop
  endfacet
  facet normal 0 -1 -0
    outer loop
      vertex 9.99998 -11 5
      vertex 5.99998 -11 0
      vertex 9.99998 -11 0
    endloop
  endfacet
  facet normal 1 -4.36427e-07 0
    outer loop
      vertex 10 23 5
      vertex 10 20.8148 2
      vertex 10 23 2
    endloop
  endfacet
  facet normal 1 -5.45843e-07 0
    outer loop
      vertex 10 17.3205 0
      vertex 10 20.8148 2
      vertex 10 17.3205 3
    endloop
  endfacet
  facet normal 1 -5.26969e-07 6.59507e-08
    outer loop
      vertex 10 23 5
      vertex 10 17.3205 3
      vertex 10 20.8148 2
    endloop
  endfacet
  facet normal 1 -3.87894e-07 -3.28988e-07
    outer loop
      vertex 10 23 5
      vertex 10 12.4033 3
      vertex 10 17.3205 3
    endloop
  endfacet
  facet normal 1 -4.48788e-07 -6.35298e-09
    outer loop
      vertex 9.99998 -11 5
      vertex 10 12.4033 3
      vertex 10 23 5
    endloop
  endfacet
  facet normal 1 -4.48245e-07 0
    outer loop
      vertex 9.99998 -11 0
      vertex 10 12.4033 3
      vertex 9.99998 -11 5
    endloop
  endfacet
  facet normal 1 -4.48245e-07 0
    outer loop
      vertex 10 12.4033 3
      vertex 9.99998 -11 0
      vertex 10 12.4033 0
    endloop
  endfacet
  facet normal 1 -5.45843e-07 0
    outer loop
      vertex 10 20.8148 2
      vertex 10 17.3205 0
      vertex 10 20.8148 0
    endloop
  endfacet
  facet normal 0 1 -0
    outer loop
      vertex 9.98729 23 0
      vertex 6.08894 23 2
      vertex 9.98729 23 2
    endloop
  endfacet
  facet normal 0 1 0
    outer loop
      vertex 6.08894 23 2
      vertex 9.98729 23 0
      vertex 6.08894 23 0
    endloop
  endfacet
  facet normal 0 1 0
    outer loop
      vertex 9.98729 23 2
      vertex 10 23 5
      vertex 10 23 2
    endloop
  endfacet
  facet normal 0 1 0
    outer loop
      vertex 6.08894 23 2
      vertex 10 23 5
      vertex 9.98729 23 2
    endloop
  endfacet
  facet normal 0 1 0
    outer loop
      vertex 10 23 5
      vertex 6.08894 23 2
      vertex 6 23 5
    endloop
  endfacet
  facet normal 0 1 0
    outer loop
      vertex 6 23 5
      vertex 6.08894 23 2
      vertex 6 23 2
    endloop
  endfacet
  facet normal -1 7.10756e-07 0
    outer loop
      vertex 5.99999 14.7469 0
      vertex 5.99998 2 0
      vertex 5.99999 14.7469 3
    endloop
  endfacet
  facet normal -1 8.21164e-07 0
    outer loop
      vertex 6 20.8015 0
      vertex 6 19.0594 0
      vertex 6 20.8015 2
    endloop
  endfacet
  facet normal -1 6.50677e-07 0
    outer loop
      vertex 6 20.8015 2
      vertex 6 23 5
      vertex 6 23 2
    endloop
  endfacet
  facet normal -1 8.21164e-07 0
    outer loop
      vertex 6 19.0594 3
      vertex 6 20.8015 2
      vertex 6 19.0594 0
    endloop
  endfacet
  facet normal -1 7.70681e-07 -8.79432e-08
    outer loop
      vertex 6 20.8015 2
      vertex 6 19.0594 3
      vertex 6 23 5
    endloop
  endfacet
  facet normal -1 7.73981e-07 -9.44442e-08
    outer loop
      vertex 5.99999 14.7469 3
      vertex 6 23 5
      vertex 6 19.0594 3
    endloop
  endfacet
  facet normal -1 7.10756e-07 0
    outer loop
      vertex 5.99998 2 5
      vertex 5.99999 14.7469 3
      vertex 5.99998 2 0
    endloop
  endfacet
  facet normal -1 7.26609e-07 1.01039e-07
    outer loop
      vertex 5.99999 14.7469 3
      vertex 5.99998 2 5
      vertex 6 23 5
    endloop
  endfacet
  facet normal 0 1 -0
    outer loop
      vertex 5.99998 2 0
      vertex -5.99998 2 5
      vertex 5.99998 2 5
    endloop
  endfacet
  facet normal 0 1 0
    outer loop
      vertex -5.99998 2 5
      vertex 5.99998 2 0
      vertex -5.99998 2 0
    endloop
  endfacet
  facet normal 1 -0 0
    outer loop
      vertex -5.99998 2 5
      vertex -5.99998 11 0
      vertex -5.99998 11 5
    endloop
  endfacet
  facet normal 1 0 0
    outer loop
      vertex -5.99998 11 0
      vertex -5.99998 2 5
      vertex -5.99998 2 0
    endloop
  endfacet
  facet normal 0 1 -0
    outer loop
      vertex -5.99998 11 0
      vertex -9.99998 11 5
      vertex -5.99998 11 5
    endloop
  endfacet
  facet normal 0 1 0
    outer loop
      vertex -9.99998 11 5
      vertex -5.99998 11 0
      vertex -9.99998 11 0
    endloop
  endfacet
  facet normal -1 5.03745e-07 0
    outer loop
      vertex -10 -17.3205 0
      vertex -10 -23 0
      vertex -10 -17.3205 3
    endloop
  endfacet
  facet normal -1 4.48245e-07 0
    outer loop
      vertex -10 -12.4033 3
      vertex -9.99998 11 0
      vertex -10 -12.4033 0
    endloop
  endfacet
  facet normal -1 4.48245e-07 0
    outer loop
      vertex -9.99998 11 0
      vertex -10 -12.4033 3
      vertex -9.99998 11 5
    endloop
  endfacet
  facet normal -1 3.87894e-07 -3.28988e-07
    outer loop
      vertex -10 -23 5
      vertex -10 -12.4033 3
      vertex -10 -17.3205 3
    endloop
  endfacet
  facet normal -1 4.48788e-07 -6.35298e-09
    outer loop
      vertex -10 -12.4033 3
      vertex -10 -23 5
      vertex -9.99998 11 5
    endloop
  endfacet
  facet normal -1 5.03745e-07 0
    outer loop
      vertex -10 -23 5
      vertex -10 -17.3205 3
      vertex -10 -23 0
    endloop
  endfacet
  facet normal 0 -1 0
    outer loop
      vertex -10 -23 0
      vertex -6 -23 5
      vertex -10 -23 5
    endloop
  endfacet
  facet normal 0 -1 -0
    outer loop
      vertex -6 -23 5
      vertex -10 -23 0
      vertex -6 -23 0
    endloop
  endfacet
  facet normal 1 -7.10756e-07 0
    outer loop
      vertex -5.99998 -2 5
      vertex -5.99999 -14.7469 3
      vertex -5.99998 -2 0
    endloop
  endfacet
  facet normal 1 -7.26609e-07 1.01039e-07
    outer loop
      vertex -6 -23 5
      vertex -5.99999 -14.7469 3
      vertex -5.99998 -2 5
    endloop
  endfacet
  facet normal 1 -7.73981e-07 -9.44442e-08
    outer loop
      vertex -5.99999 -14.7469 3
      vertex -6 -23 5
      vertex -6 -19.0594 3
    endloop
  endfacet
  facet normal 1 -7.26046e-07 0
    outer loop
      vertex -6 -23 0
      vertex -6 -19.0594 3
      vertex -6 -23 5
    endloop
  endfacet
  facet normal 1 -7.26046e-07 0
    outer loop
      vertex -6 -19.0594 3
      vertex -6 -23 0
      vertex -6 -19.0594 0
    endloop
  endfacet
  facet normal 1 -7.10756e-07 0
    outer loop
      vertex -5.99998 -2 0
      vertex -5.99999 -14.7469 3
      vertex -5.99999 -14.7469 0
    endloop
  endfacet
endsolid OpenSCAD_Model
